<svg width="919" height="574" viewBox="0 0 919 574" fill="none" xmlns="http://www.w3.org/2000/svg">
<path d="M919 384.614C919 395.66 910.046 404.614 899 404.614L19.9999 404.614C8.95425 404.614 -6.02523e-05 395.66 -5.92867e-05 384.614L-4.53412e-05 225.096C-4.48351e-05 219.307 8.34957 218.462 9.509 224.134V224.134C10.5865 229.405 18.189 229.19 18.9675 223.867L31.3069 139.494C34.4478 118.019 64.9035 116.601 70.0251 137.693L76.8826 165.932C81.9767 186.911 112.099 186.052 115.99 164.818L128.779 95.0351C132.663 73.8366 162.716 72.9309 167.87 93.8569L192.101 192.23C196.337 209.427 220.711 209.637 225.242 192.515V192.515C229.822 175.212 254.539 175.678 258.463 193.141L261.823 208.094C266.375 228.348 294.957 229.114 300.587 209.133L318.487 145.609C324.165 125.459 353.065 126.47 357.32 146.969L366.886 193.059C370.899 212.39 397.521 214.833 404.985 196.555L418.579 163.262C423.693 150.738 441.761 151.773 445.412 164.799V164.799C449.176 178.232 468.024 178.76 472.535 165.56L486.535 124.593C492.784 106.306 518.761 106.636 524.544 125.075L534.924 158.171C535.168 158.951 535.353 159.748 535.477 160.556L535.991 163.906C538.663 181.335 563.675 181.622 566.746 164.259V164.259C569.754 147.255 594.072 147.033 597.39 163.979L601.327 184.085V184.085C602.851 195.337 619.253 194.942 620.233 183.629L627.349 101.464C629.128 80.9297 657.977 78.0086 663.836 97.7692L670.043 118.707C675.215 136.153 699.781 136.544 705.507 119.273V119.273C711.111 102.367 734.988 102.262 740.741 119.118L749.473 144.702C754.004 157.975 772.666 158.277 777.624 145.157V145.157C782.885 131.234 803.039 132.701 806.229 147.239L812.736 176.903C817.365 198.008 847.535 197.795 851.865 176.627L867.063 102.341C871.482 80.7427 902.474 81.1341 906.346 102.837L918.689 172.023C918.896 173.183 919 174.358 919 175.536L919 384.614Z" fill="#E9D8E8"/>
<path d="M7.06086 230.542L6.96182e-05 232.527L7.46085e-05 175.445L9.5 226.651L7.06086 230.542Z" fill="#E9D8E8"/>
<path d="M20 404.614L0 404.614L2.93548e-06 371.036L9.5 381.643L20 404.614Z" fill="#E9D8E8"/>
<path d="M919 175.445L919 181.321L918 173.766L918.5 171.248L919 175.445Z" fill="#E9D8E8"/>
<rect x="919" y="404.614" width="21" height="31.899" transform="rotate(-180 919 404.614)" fill="#E9D8E8"/>
<rect y="389" width="919" height="185" fill="#E9D8E8"/>
</svg>
