<svg width="415" height="283" viewBox="0 0 415 283" fill="none" xmlns="http://www.w3.org/2000/svg">
<path d="M379.004 197.122L389.989 187.708L414.707 275.095L400.836 275.095L379.004 197.122Z" fill="#B35BAF"/>
<path d="M265.456 189.228L278.74 185.508L302.977 274.632L289.369 274.632L265.456 189.228Z" fill="#B35BAF"/>
<rect x="362.524" y="34.2253" width="27.1244" height="240.31" transform="rotate(-0.336085 362.524 34.2253)" fill="#B35BAF"/>
<rect x="251.748" y="34.0686" width="26.8845" height="240.31" transform="rotate(-0.336085 251.748 34.0686)" fill="#B35BAF"/>
<path d="M260.908 83.3457H381.749V169.857H260.908V83.3457Z" fill="#B35BAF" stroke="#B35BAF" stroke-width="16.4784"/>
<rect x="269.147" y="132.782" width="104.363" height="32.9568" fill="#B35BAF"/>
<circle cx="288.371" cy="108.064" r="13.732" fill="#B35BAF"/>
<path d="M269.147 132.781H373.511V149.259H269.147V132.781Z" fill="#B35BAF"/>
<line x1="232.791" y1="152.743" x2="269.156" y2="136.264" stroke="#B35BAF" stroke-width="16.4784"/>
<line x1="193.812" y1="210.076" x2="189.488" y2="281.586" stroke="#B35BAF" stroke-width="16.4784"/>
<line x1="216.942" y1="209.052" x2="222.435" y2="280.562" stroke="#B35BAF" stroke-width="16.4784"/>
<line x1="203.942" y1="110.879" x2="242.392" y2="154.822" stroke="#B35BAF" stroke-width="16.4784"/>
<line x1="198.075" y1="105.653" x2="159.625" y2="144.102" stroke="#B35BAF" stroke-width="16.4784"/>
<line x1="160.5" y1="142.772" x2="144.714" y2="174.869" stroke="#B35BAF" stroke-width="16.4784"/>
<path d="M208.727 94.334L222.459 110.812L236.191 226.161H175.771L186.756 104.633L192.249 94.334H208.727Z" fill="#B35BAF"/>
<line x1="254.193" y1="125.006" x2="287.15" y2="146.977" stroke="#B35BAF" stroke-width="5.4928"/>
<path d="M282.88 141.022L293.866 143.767L299.358 154.753L285.626 154.753L280.134 146.515L282.88 141.022Z" fill="#B35BAF"/>
<ellipse cx="203.234" cy="75.109" rx="21.9712" ry="24.7176" fill="#B35BAF"/>
<path d="M220.597 55.8065C218.763 53.6524 216.477 51.9198 213.869 50.7074C211.262 49.4951 208.383 48.8268 205.399 48.7407C202.414 48.6546 199.381 49.1524 196.474 50.2057C193.567 51.259 190.842 52.8471 188.455 54.8794C186.068 56.9117 184.065 59.3484 182.562 62.0504C181.058 64.7523 180.083 67.6665 179.692 70.6268C179.301 73.587 179.501 76.5351 180.282 79.3029C181.063 82.0708 182.409 84.604 184.243 86.7581L202.42 71.2823L220.597 55.8065Z" fill="#B35BAF"/>
<path d="M220.597 55.8065C218.763 53.6524 216.477 51.9198 213.869 50.7074C211.262 49.4951 208.383 48.8268 205.399 48.7407C202.414 48.6546 199.381 49.1524 196.474 50.2057C193.567 51.259 190.842 52.8471 188.455 54.8794C186.068 56.9117 184.065 59.3484 182.562 62.0504C181.058 64.7523 180.083 67.6665 179.692 70.6268C179.301 73.587 179.501 76.5351 180.282 79.3029C181.063 82.0708 182.409 84.604 184.243 86.7581L202.42 71.2823L220.597 55.8065Z" fill="#B35BAF"/>
<ellipse cx="186.536" cy="55.0106" rx="21.9712" ry="16.22" transform="rotate(-40.4103 186.536 55.0106)" fill="#B35BAF"/>
<ellipse cx="186.536" cy="55.0106" rx="21.9712" ry="16.22" transform="rotate(-40.4103 186.536 55.0106)" fill="#B35BAF"/>
<line x1="99.5255" y1="132.788" x2="137.975" y2="175.872" stroke="#B35BAF" stroke-width="16.4784"/>
<line x1="78.9363" y1="85.4921" x2="100.908" y2="134.927" stroke="#B35BAF" stroke-width="16.4784"/>
<line x1="40.7732" y1="69.4727" x2="24.2948" y2="118.908" stroke="#B35BAF" stroke-width="16.4784"/>
<path d="M24.7177 116.302L24.7177 168.484" stroke="#B35BAF" stroke-width="16.4784"/>
<path d="M60.4209 171.231L46.6888 228.905L10.9856 275.594L0 259.116L24.7176 228.905L38.4496 171.231H48.789H60.4209Z" fill="#B35BAF"/>
<path d="M87.8849 171.231V198.025V281.087H65.9137V171.231H76.2531H87.8849Z" fill="#B35BAF"/>
<path d="M71.4064 58.6282L87.8848 69.6138L90.6312 77.853L85.1384 110.81L90.6312 176.723H32.9568L27.464 97.0778L32.9568 66.8674L52.1816 58.6282H71.4064Z" fill="#B35BAF"/>
<ellipse cx="60.4208" cy="33.9103" rx="21.9712" ry="27.464" fill="#B35BAF"/>
<path d="M82.392 20.1784C82.392 27.7624 49.4352 42.1497 41.196 50.3889C29.0616 50.3889 24.7175 20.1784 35.7028 20.1784C19.2244 20.1784 46.6887 -1.79278 54.9278 3.70002C57.6744 -7.28577 82.392 8.58361 82.392 20.1784Z" fill="#B35BAF"/>
</svg>
