<svg width="919" height="405" viewBox="0 0 919 405" fill="none" xmlns="http://www.w3.org/2000/svg">
    <path d="M0 20C0 8.95431 8.95431 0 20 0H899C910.046 0 919 8.95431 919 20V179.518C919 185.307 910.65 186.152 909.491 180.48V180.48C908.414 175.21 900.811 175.424 900.033 180.747L887.693 265.12C884.552 286.596 854.097 288.013 848.975 266.921L842.117 238.682C837.023 217.704 806.901 218.562 803.01 239.796L790.222 309.579C786.337 330.778 756.284 331.683 751.13 310.757L726.899 212.384C722.663 195.187 698.289 194.978 693.758 212.099V212.099C689.178 229.402 664.461 228.936 660.537 211.473L657.177 196.52C652.625 176.266 624.043 175.5 618.413 195.481L600.513 259.005C594.835 279.156 565.935 278.144 561.68 257.645L552.114 211.555C548.101 192.224 521.479 189.781 514.015 208.059L500.421 241.352C495.307 253.877 477.239 252.842 473.588 239.815V239.815C469.824 226.382 450.976 225.854 446.465 239.054L432.465 280.022C426.216 298.308 400.239 297.978 394.456 279.539L384.076 246.443C383.832 245.664 383.647 244.866 383.523 244.058L383.009 240.708C380.337 223.279 355.326 222.992 352.254 240.355V240.355C349.246 257.359 324.928 257.581 321.61 240.635L317.673 220.53V220.53C316.149 209.277 299.747 209.672 298.767 220.985L291.651 303.151C289.872 323.684 261.023 326.606 255.164 306.845L248.957 285.907C243.785 268.462 219.219 268.07 213.493 285.341V285.341C207.889 302.247 184.012 302.352 178.259 285.496L169.527 259.912C164.996 246.639 146.334 246.337 141.376 259.457V259.457C136.115 273.38 115.961 271.913 112.771 257.375L106.264 227.711C101.635 206.606 71.4654 206.819 67.1347 227.988L51.9371 302.273C47.5185 323.872 16.5256 323.48 12.6538 301.777L0.310868 232.591C0.104027 231.431 0 230.256 0 229.078V20Z" fill="#E9D8E8"/>
    <path d="M911.939 174.072L919 172.087V229.169L909.5 177.963L911.939 174.072Z" fill="#E9D8E8"/>
    <path d="M899 0H919V33.5779L909.5 22.9713L899 0Z" fill="#E9D8E8"/>
    <path d="M0 229.169V223.293L1 230.848L0.5 233.367L0 229.169Z" fill="#E9D8E8"/>
    <rect width="21" height="31.899" fill="#E9D8E8"/>
</svg>
